<svg xmlns="http://www.w3.org/2000/svg" viewBox="0 0 491.858 491.858" width="512" height="512" enable-background="new 0 0 491.858 491.858"><g fill="#fff"><path d="M377.472 224.957H201.32v58.718h107.47c-16.032 51.048-63.714 88.077-120.055 88.077-69.492 0-125.823-56.335-125.823-125.824 0-69.492 56.333-125.823 125.823-125.823 34.994 0 66.645 14.29 89.452 37.346l42.622-46.327c-34.04-33.355-80.65-53.93-132.075-53.93C84.5 57.194 0 141.694 0 245.93s84.5 188.737 188.736 188.737c91.307 0 171.248-64.844 188.737-150.99V224.96zM491.858 224.857h-36.03v-36.03H424.94v36.03h-36.03v30.883h36.03v36.032h30.887V255.74h36.03z"/></g></svg>