<svg xmlns="http://www.w3.org/2000/svg" viewBox="0 0 535.5 535.5" enable-background="new 0 0 535.5 535.5"><path d="M439.72 66.708c0 8.976-1.73 17.442-5.198 25.398-3.47 7.956-8.06 14.994-13.77 21.114-5.713 6.12-12.547 10.914-20.503 14.382-7.957 3.468-16.423 5.202-25.397 5.202-8.98 0-17.442-1.734-25.398-5.202-7.956-3.468-14.892-8.262-20.808-14.382-5.916-6.12-10.608-13.158-14.076-21.114s-5.2-16.422-5.2-25.398 1.733-17.544 5.2-25.704 8.16-15.3 14.077-21.42S341.5 8.67 349.455 5.202C357.41 1.734 365.877 0 374.853 0s17.44 1.734 25.396 5.202c7.955 3.468 14.79 8.262 20.5 14.382s10.303 13.26 13.772 21.42c3.466 8.16 5.2 16.728 5.2 25.704zm0 201.35c0 9.382-1.73 18.052-5.198 26.01-3.47 7.954-8.06 14.89-13.77 20.806s-12.547 10.61-20.503 14.076c-7.957 3.47-16.423 5.203-25.397 5.203-8.98 0-17.442-1.734-25.398-5.203-7.956-3.467-14.892-8.16-20.808-14.076s-10.608-12.852-14.076-20.807c-3.467-7.957-5.2-16.627-5.2-26.01 0-8.977 1.733-17.545 5.2-25.705 3.47-8.16 8.16-15.198 14.077-21.114s12.852-10.608 20.808-14.076c7.956-3.468 16.422-5.202 25.398-5.202s17.44 1.734 25.396 5.202c7.955 3.468 14.79 8.16 20.5 14.076s10.303 12.954 13.772 21.114c3.466 8.16 5.2 16.728 5.2 25.705zm-1.835 201.346c0 8.98-1.632 17.34-4.896 25.092s-7.753 14.484-13.465 20.195c-5.712 5.714-12.444 10.202-20.196 13.466s-15.913 4.896-24.48 4.896c-8.568 0-16.73-1.635-24.48-4.896-7.752-3.264-14.484-7.752-20.196-13.465-5.712-5.71-10.198-12.442-13.464-20.194-3.264-7.752-4.896-16.113-4.896-25.092 0-8.568 1.632-16.73 4.896-24.48 3.266-7.75 7.752-14.585 13.464-20.5s12.444-10.51 20.196-13.772c7.752-3.264 15.912-4.896 24.48-4.896 8.565 0 16.728 1.633 24.48 4.896s14.483 7.854 20.195 13.77c5.712 5.917 10.2 12.75 13.464 20.503s4.895 15.91 4.895 24.48zM226.135 66.708c0 8.976-1.735 17.442-5.203 25.398s-8.058 14.994-13.77 21.114-12.546 10.914-20.502 14.382c-7.956 3.468-16.422 5.202-25.398 5.202s-17.442-1.734-25.398-5.202c-7.956-3.468-14.892-8.262-20.808-14.382-5.916-6.12-10.608-13.158-14.076-21.114s-5.202-16.422-5.202-25.398 1.734-17.544 5.202-25.704 8.16-15.3 14.076-21.42S127.908 8.67 135.864 5.202 152.286 0 161.262 0s17.442 1.734 25.398 5.202 14.79 8.262 20.502 14.382 10.302 13.26 13.77 21.42c3.468 8.16 5.202 16.728 5.202 25.704zm0 201.35c0 9.382-1.735 18.052-5.203 26.01-3.468 7.954-8.058 14.89-13.77 20.806s-12.546 10.61-20.502 14.076c-7.956 3.47-16.422 5.203-25.398 5.203s-17.442-1.734-25.398-5.203c-7.956-3.467-14.892-8.16-20.808-14.076s-10.608-12.852-14.076-20.807c-3.468-7.957-5.202-16.627-5.202-26.01 0-8.977 1.734-17.545 5.202-25.705 3.468-8.16 8.16-15.198 14.076-21.114s12.852-10.608 20.808-14.076 16.422-5.202 25.398-5.202 17.442 1.734 25.398 5.202 14.79 8.16 20.502 14.076 10.302 12.954 13.77 21.114 5.202 16.728 5.202 25.705zm0 201.346c0 9.383-1.735 18.053-5.203 26.01-3.468 7.955-8.058 14.895-13.77 20.81s-12.546 10.606-20.502 14.077c-7.956 3.468-16.422 5.2-25.398 5.2s-17.442-1.732-25.398-5.2c-7.956-3.47-14.892-8.16-20.808-14.075s-10.608-12.855-14.076-20.81c-3.468-7.958-5.202-16.628-5.202-26.01 0-8.978 1.734-17.546 5.202-25.706s8.16-15.198 14.076-21.114 12.852-10.605 20.808-14.074c7.956-3.47 16.422-5.2 25.398-5.2s17.442 1.73 25.398 5.2c7.956 3.47 14.79 8.158 20.502 14.074s10.302 12.953 13.77 21.113 5.202 16.728 5.202 25.704z" fill="#424A60"/></svg>