<svg xmlns="http://www.w3.org/2000/svg" viewBox="0 0 360.33 360.33" width="512" height="512" enable-background="new 0 0 360.33 360.33"><path d="M352.292 8.364c-5.244-5.33-12.25-8.3-19.73-8.363h-.234c-15.308 0-27.866 12.456-27.992 27.766-.06 7.478 2.792 14.533 8.037 19.864s12.25 8.3 19.73 8.363h.234c15.308 0 27.866-12.455 27.992-27.765.06-7.478-2.794-14.533-8.038-19.864zM332.336 45.65h-.15c-4.714-.04-9.132-1.912-12.438-5.273-3.307-3.362-5.107-7.81-5.068-12.525.08-9.654 7.996-17.508 17.648-17.508h.15c4.714.04 9.132 1.913 12.438 5.274 3.307 3.362 5.107 7.81 5.068 12.525-.08 9.654-7.996 17.508-17.648 17.508zM28.228 152.17l-.235-.002c-15.31 0-27.866 12.456-27.992 27.767-.126 15.436 12.33 28.1 27.766 28.227H28c15.31 0 27.867-12.456 27.993-27.766.127-15.437-12.328-28.1-27.765-28.227zM28 197.817h-.15c-9.733-.08-17.587-8.065-17.507-17.8.08-9.653 7.997-17.507 17.65-17.507h.148c9.735.08 17.59 8.066 17.51 17.8-.08 9.654-7.997 17.508-17.65 17.508zM133.585 46.812h-.235c-15.31 0-27.867 12.455-27.992 27.765-.127 15.437 12.328 28.1 27.765 28.227h.235c15.308 0 27.866-12.455 27.992-27.765.127-15.44-12.328-28.102-27.765-28.228zm-.228 45.65h-.15c-9.733-.08-17.587-8.066-17.507-17.8.08-9.653 7.997-17.507 17.65-17.507h.148c9.734.08 17.588 8.066 17.508 17.8-.08 9.653-7.996 17.507-17.65 17.507zM209.67 122.896h-.236c-15.31 0-27.866 12.455-27.992 27.765-.127 15.438 12.33 28.1 27.766 28.228h.234c15.308 0 27.866-12.455 27.992-27.765.127-15.438-12.33-28.1-27.765-28.227zm-.23 45.65h-.148c-9.734-.08-17.588-8.066-17.508-17.8.08-9.653 7.996-17.507 17.648-17.507h.15c9.733.08 17.586 8.065 17.506 17.798-.078 9.654-7.995 17.508-17.647 17.508zM221.89 131.088l90.498-90.73 7.323 7.305-90.498 90.73zM145.836 94.613l7.313-7.314 43.835 43.835-7.314 7.313zM40.48 160.37l73.078-73.08 7.314 7.314-73.08 73.078zM296.727 106.518V360.33h63.602V106.518h-63.603zm10.344 243.468V116.86h42.916v233.126H307.07zM197.818 213.035V360.33h63.602V213.035h-63.602zm53.26 136.95h-42.916V223.38h42.916v126.606zM98.908 205.427V360.33h63.602V205.427H98.908zm53.26 144.56h-42.916V215.77h42.916v134.216zM0 243.47v116.86h63.602V243.47H0zm53.26 106.516H10.342V253.81H53.26v96.176z" fill="#424A60"/></svg>